<svg width="92" height="92" viewBox="0 0 92 92" fill="none" xmlns="http://www.w3.org/2000/svg">
<circle cx="46" cy="46" r="46" fill="#FF918A"/>
<path d="M63.6094 62.1719H28.3906C27.0013 62.1719 25.875 63.2982 25.875 64.6875C25.875 66.0768 27.0013 67.2031 28.3906 67.2031H63.6094C64.9987 67.2031 66.125 66.0768 66.125 64.6875C66.125 63.2982 64.9987 62.1719 63.6094 62.1719Z" fill="white"/>
<path d="M25.875 59.6563V64.6875C25.875 66.0768 27.0013 67.2031 28.3906 67.2031C29.78 67.2031 30.9062 66.0768 30.9062 64.6875V59.6563C30.9062 58.2669 29.78 57.1406 28.3906 57.1406C27.0013 57.1406 25.875 58.2669 25.875 59.6563Z" fill="white"/>
<path d="M61.0938 59.6563V64.6875C61.0938 66.0768 62.22 67.2031 63.6094 67.2031C64.9987 67.2031 66.125 66.0768 66.125 64.6875V59.6563C66.125 58.2669 64.9987 57.1406 63.6094 57.1406C62.22 57.1406 61.0938 58.2669 61.0938 59.6563Z" fill="white"/>
<path d="M45.9999 54.625C45.4784 54.629 44.9685 54.4707 44.5408 54.1722L34.4783 47.0781C33.936 46.6934 33.568 46.1096 33.4549 45.4544C33.3418 44.7991 33.4927 44.1257 33.8746 43.5814C34.0652 43.3093 34.3079 43.0777 34.5885 42.8999C34.8692 42.7222 35.1823 42.6017 35.5097 42.5456C35.8371 42.4895 36.1725 42.4987 36.4963 42.5729C36.8201 42.6471 37.1261 42.7846 37.3965 42.9777L45.9999 48.99L54.553 42.55C55.0868 42.1497 55.7577 41.9778 56.4182 42.0722C57.0786 42.1665 57.6746 42.5194 58.0749 43.0531C58.4752 43.5869 58.6471 44.2578 58.5527 44.9183C58.4584 45.5788 58.1055 46.1747 57.5718 46.575L47.5093 54.1219C47.0738 54.4485 46.5442 54.625 45.9999 54.625Z" fill="white"/>
<path d="M46 49.5938C45.3328 49.5938 44.693 49.3287 44.2212 48.8569C43.7494 48.3852 43.4844 47.7453 43.4844 47.0781V26.9531C43.4844 26.2859 43.7494 25.6461 44.2212 25.1743C44.693 24.7025 45.3328 24.4375 46 24.4375C46.6672 24.4375 47.307 24.7025 47.7788 25.1743C48.2506 25.6461 48.5156 26.2859 48.5156 26.9531V47.0781C48.5156 47.7453 48.2506 48.3852 47.7788 48.8569C47.307 49.3287 46.6672 49.5938 46 49.5938Z" fill="white"/>
</svg>
