<svg width="24" height="25" viewBox="0 0 24 25" fill="none" xmlns="http://www.w3.org/2000/svg">
<path d="M4.38226 0.019043C1.95468 0.019043 0 1.97372 0 4.4013V19.6368C0 22.0644 1.95468 24.0191 4.38226 24.0191H12.6398V14.6366H10.1588V11.2586H12.6398V8.37256C12.6398 6.10516 14.1057 4.0233 17.4825 4.0233C18.8497 4.0233 19.8608 4.15456 19.8608 4.15456L19.7813 7.30907C19.7813 7.30907 18.7501 7.29932 17.625 7.29932C16.4073 7.29932 16.212 7.8604 16.212 8.79184V11.2586H19.878L19.7183 14.6366H16.212V24.0191H19.6177C22.0453 24.0191 24 22.0644 24 19.6368V4.40132C24 1.97375 22.0453 0.019067 19.6177 0.019067H4.38223L4.38226 0.019043Z" fill="white"/>
</svg>
