<svg width="33" height="61" viewBox="0 0 33 61" fill="none" xmlns="http://www.w3.org/2000/svg">
<path d="M28.8084 37.7443C29.1861 37.0461 29.3929 36.2627 29.4109 35.4625C29.4288 34.6623 29.2572 33.8697 28.9112 33.1541L19.1518 12.9233H17.6178V29.2006C18.1163 29.3785 18.5694 29.6711 18.9432 30.0565C19.4398 30.571 19.7781 31.2266 19.9152 31.9404C20.0523 32.6541 19.982 33.394 19.7134 34.0665C19.4448 34.7389 18.9898 35.3136 18.4059 35.718C17.8221 36.1224 17.1357 36.3382 16.4335 36.3382C15.7314 36.3382 15.045 36.1224 14.4611 35.718C13.8773 35.3136 13.4223 34.7389 13.1537 34.0665C12.885 33.394 12.8148 32.6541 12.9519 31.9404C13.089 31.2266 13.4273 30.571 13.9239 30.0565C14.2977 29.6711 14.7508 29.3785 15.2492 29.2006V12.9233H13.7123L3.95586 33.1541C3.61037 33.8697 3.43887 34.662 3.45628 35.462C3.4737 36.2621 3.6795 37.0455 4.05577 37.7443L9.7392 48.2709H23.1279L28.8084 37.7443ZM13.2891 60.8382H19.5779C20.52 60.8374 21.4232 60.4492 22.0893 59.7587C22.7555 59.0683 23.13 58.1321 23.1308 57.1557V51.0243H9.73626V57.1557C9.73626 58.1324 10.1106 59.069 10.7769 59.7596C11.4432 60.4502 12.3469 60.8382 13.2891 60.8382V60.8382Z" fill="#AF5B00"/>
<path d="M0.867432 12.8473C1.94374 9.44827 4.02826 6.48842 6.82357 4.38998C9.61889 2.29155 12.9822 1.16174 16.4337 1.16174C19.8852 1.16174 23.2485 2.29155 26.0438 4.38998C28.8391 6.48842 30.9236 9.44827 31.9999 12.8473" stroke="#FE9A22" stroke-width="0.838548" stroke-miterlimit="10"/>
</svg>
