<svg width="17" height="25" viewBox="0 0 17 25" fill="none" xmlns="http://www.w3.org/2000/svg">
<path d="M16.6229 13.3161C16.8558 12.9664 16.9833 12.5739 16.9943 12.1731C17.0054 11.7723 16.8996 11.3753 16.6863 11.0169L10.6706 0.883545H9.72507V9.03662C10.0323 9.12574 10.3116 9.27231 10.542 9.46533C10.8481 9.72304 11.0566 10.0514 11.1411 10.409C11.2257 10.7665 11.1824 11.1371 11.0168 11.4739C10.8512 11.8107 10.5707 12.0986 10.2109 12.3011C9.85099 12.5037 9.42789 12.6118 8.99507 12.6118C8.56224 12.6118 8.13914 12.5037 7.77928 12.3011C7.41941 12.0986 7.13895 11.8107 6.97336 11.4739C6.80776 11.1371 6.76448 10.7665 6.84899 10.409C6.9335 10.0514 7.142 9.72304 7.44812 9.46533C7.67851 9.27231 7.95781 9.12574 8.26507 9.03662V0.883545H7.31769L1.3038 11.0169C1.09084 11.3754 0.985126 11.7722 0.99586 12.1729C1.00659 12.5736 1.13345 12.9661 1.36539 13.3161L4.86866 18.5887H13.1215L16.6229 13.3161ZM7.05686 24.8835H10.9333C11.514 24.8831 12.0707 24.6887 12.4813 24.3429C12.8919 23.997 13.1228 23.5281 13.1233 23.039V19.9679H4.86685V23.039C4.86685 23.5282 5.09758 23.9974 5.50829 24.3433C5.91899 24.6892 6.47603 24.8835 7.05686 24.8835Z" fill="#AF5B00"/>
</svg>
