<svg width="131" height="86" viewBox="0 0 131 86" fill="none" xmlns="http://www.w3.org/2000/svg">
<path d="M82.0866 41.1541H82.4502V42.3312C82.4531 44.7437 81.9393 47.1288 80.9432 49.326C79.9472 51.5233 78.492 53.4817 76.6757 55.0695L82.7398 67.1792M82.0866 41.1541V40.7905H48.9189V41.1541M82.0866 41.1541V42.3312V42.3316C82.0895 44.6922 81.5867 47.026 80.6121 49.1759C79.6375 51.3259 78.2137 53.2422 76.4365 54.7958L76.2248 54.9808L76.3507 55.2323L82.3082 67.1291M82.0866 41.1541H48.9189M48.9189 41.1541H48.5554V42.3312C48.5524 44.7437 49.0663 47.1288 50.0623 49.326C51.0584 51.5233 52.5135 53.4817 54.3298 55.0695L48.2688 67.1792M48.9189 41.1541V42.3312V42.3316C48.916 44.6922 49.4188 47.026 50.3934 49.1759C51.368 51.3259 52.7918 53.2422 54.5691 54.7958L54.7807 54.9808L54.6549 55.2322L48.7004 67.1291M48.2688 67.1792L63.5986 85.564V84.9964M48.2688 67.1792L48.548 66.9464L48.7004 67.1291M48.2688 67.1792L48.5939 67.3419L48.7004 67.1291M63.5986 84.9964L63.9621 85.4324V68.8677V68.5041H64.3256H66.6799H67.0434V68.8677V85.4324L67.407 84.9965M63.5986 84.9964L48.7004 67.1291M63.5986 84.9964V68.5041V68.1406H63.9621H67.0434H67.407V68.5041V84.9965M67.407 84.9965V85.5641L82.7398 67.1792M67.407 84.9965L82.3082 67.1291M82.7398 67.1792L82.4147 67.3419L82.3082 67.1291M82.7398 67.1792L82.4606 66.9463L82.3082 67.1291" fill="#FF9900" stroke="#603400" stroke-width="0.727053"/>
<path d="M51.5321 22.2544H79.6776C79.9959 22.2544 80.3011 22.3809 80.5262 22.6059C80.7513 22.831 80.8777 23.1363 80.8777 23.4545C80.8777 23.7728 80.7513 24.0781 80.5262 24.3032C80.3011 24.5282 79.9959 24.6547 79.6776 24.6547H51.5321C51.2139 24.6547 50.9086 24.5282 50.6835 24.3032C50.4585 24.0781 50.332 23.7728 50.332 23.4545C50.332 23.1363 50.4585 22.831 50.6835 22.6059C50.9086 22.3809 51.2139 22.2544 51.5321 22.2544ZM53.0958 0.363527H78.114C78.847 0.363527 79.5499 0.654706 80.0682 1.17301C80.5865 1.69131 80.8777 2.39428 80.8777 3.12727V18.7636C80.8777 19.0819 80.7513 19.3872 80.5262 19.6122C80.3011 19.8373 79.9959 19.9637 79.6776 19.9637H51.5321C51.2139 19.9637 50.9086 19.8373 50.6835 19.6122C50.4585 19.3872 50.332 19.0819 50.332 18.7636V3.12727C50.332 2.39428 50.6232 1.69131 51.1415 1.17301C51.6598 0.654706 52.3628 0.363527 53.0958 0.363527Z" fill="#FF9900" stroke="#603400" stroke-width="0.727053"/>
<path d="M0 25.1541H40.1107H113.874C123.26 25.1541 130.87 32.7634 130.87 42.1501V50.6481H16.996C7.60938 50.6481 0 43.0387 0 33.6521V25.1541Z" fill="#603400"/>
<path d="M24.8142 11.2173L0 25.154H35.3518L24.8142 11.2173Z" fill="#2F1900"/>
<path d="M106.055 64.5851L130.87 50.6483H95.5179L106.055 64.5851Z" fill="#2F1900"/>
<g filter="url(#filter0_d)">
<path d="M36.2825 30.1384H40.0842C41.1067 30.1384 41.8463 30.3886 42.3032 30.889C42.7709 31.3893 43.0048 32.2052 43.0048 33.3364V33.9564C43.0048 35.2944 42.5262 36.0938 41.569 36.3549C42.1563 36.5072 42.5697 36.8607 42.809 37.4155C43.0483 37.9702 43.1679 38.7044 43.1679 39.6181C43.1679 41.1084 42.945 42.2396 42.499 43.0119C42.053 43.7733 41.2481 44.1541 40.0842 44.1541H36.2825V30.1384ZM39.5947 35.4086C39.834 35.4086 39.9972 35.3215 40.0842 35.1475C40.1712 34.9626 40.2147 34.707 40.2147 34.3806V32.9775C40.2147 32.5206 40.0135 32.2922 39.611 32.2922H39.0236V35.4086H39.5947ZM39.301 41.6903C40.0298 41.6903 40.3942 41.3422 40.3942 40.6461V38.9002C40.3942 38.476 40.3289 38.1551 40.1984 37.9376C40.0787 37.72 39.8612 37.6113 39.5457 37.6113H39.0236V41.674L39.301 41.6903ZM43.9595 44.1541V30.1384H46.668V44.1541H43.9595ZM48.9941 44.1541V32.8306H47.3299V30.1384H53.4647V32.8306H51.8005V44.1541H48.9941ZM59.2873 44.1541V32.8306H57.6231V30.1384H63.758V32.8306H62.0937V44.1541H59.2873ZM67.8939 44.2846C66.7626 44.2846 65.9033 43.9419 65.3159 43.2567C64.7285 42.5605 64.4348 41.587 64.4348 40.3361V33.6627C64.4348 32.4553 64.7285 31.5471 65.3159 30.9379C65.9033 30.3179 66.7626 30.0079 67.8939 30.0079C69.0251 30.0079 69.8845 30.3179 70.4718 30.9379C71.0592 31.5471 71.3529 32.4553 71.3529 33.6627V40.3361C71.3529 41.5978 71.0592 42.5714 70.4718 43.2567C69.8845 43.9419 69.0251 44.2846 67.8939 44.2846ZM67.8939 41.7066C68.1441 41.7066 68.3127 41.5978 68.3997 41.3803C68.4867 41.1627 68.5302 40.8582 68.5302 40.4666V33.6138C68.5302 33.3092 68.4867 33.0645 68.3997 32.8796C68.3235 32.6838 68.1604 32.5859 67.9102 32.5859C67.4425 32.5859 67.2086 32.9394 67.2086 33.6464V40.4829C67.2086 40.8854 67.2575 41.1899 67.3554 41.3966C67.4533 41.6033 67.6328 41.7066 67.8939 41.7066ZM76.1777 44.1541V30.1384H78.8862V44.1541H76.1777ZM80.0048 44.1541V30.1384H82.8928L84.1818 36.8444V30.1384H86.8903V44.1541H84.1492L82.746 37.1381V44.1541H80.0048ZM88.1311 44.1541V30.1384H90.9048V35.7512L92.2101 30.1384H95.0328L93.4665 36.5507L95.3592 44.1541H92.4549L90.9211 37.3665V44.1541H88.1311Z" fill="#FF9900"/>
</g>
<defs>
<filter id="filter0_d" x="36.2825" y="30.0079" width="59.4402" height="14.2767" filterUnits="userSpaceOnUse" color-interpolation-filters="sRGB">
<feFlood flood-opacity="0" result="BackgroundImageFix"/>
<feColorMatrix in="SourceAlpha" type="matrix" values="0 0 0 0 0 0 0 0 0 0 0 0 0 0 0 0 0 0 127 0"/>
<feOffset dx="0.363527"/>
<feColorMatrix type="matrix" values="0 0 0 0 0.376471 0 0 0 0 0.203922 0 0 0 0 0 0 0 0 1 0"/>
<feBlend mode="normal" in2="BackgroundImageFix" result="effect1_dropShadow"/>
<feBlend mode="normal" in="SourceGraphic" in2="effect1_dropShadow" result="shape"/>
</filter>
</defs>
</svg>
