<svg width="1440" height="1228" viewBox="0 0 1440 1228" fill="none" xmlns="http://www.w3.org/2000/svg">
<rect width="1440" height="1228" fill="white"/>
<path d="M0 0H1440V568.676C1440 667.495 1367.83 751.501 1270.14 766.392L0 960V0Z" fill="#F6ECDF"/>
<circle cx="1207" cy="96" r="32" fill="#30A8FF" fill-opacity="0.2"/>
<circle cx="201" cy="122" r="32" fill="#C25450" fill-opacity="0.2"/>
<circle cx="358" cy="433" r="20" fill="#E9D0AF"/>
<circle cx="1280.48" cy="385.485" r="60" transform="rotate(15 1280.48 385.485)" fill="white"/>
<path d="M1297.49 373.483L1271.55 366.531C1271.33 366.474 1271.11 366.46 1270.89 366.489C1270.68 366.518 1270.46 366.59 1270.27 366.701C1270.08 366.812 1269.91 366.959 1269.78 367.135C1269.65 367.311 1269.55 367.511 1269.49 367.725L1267.54 374.984L1281.39 383.456L1296.73 382.805L1298.68 375.546C1298.73 375.332 1298.75 375.109 1298.72 374.889C1298.69 374.669 1298.62 374.458 1298.51 374.266C1298.4 374.075 1298.25 373.907 1298.08 373.773C1297.9 373.638 1297.7 373.54 1297.49 373.483V373.483Z" fill="#41A5EE"/>
<path d="M1296.73 382.805L1267.54 374.984L1265.16 383.871L1279.48 390.566L1294.35 391.692L1296.73 382.805Z" fill="#2B7CD3"/>
<path d="M1265.16 383.871L1262.78 392.758L1276.46 398.327L1291.97 400.579L1294.35 391.692L1265.16 383.871Z" fill="#185ABD"/>
<path d="M1262.02 402.079L1287.96 409.031C1288.18 409.089 1288.4 409.103 1288.62 409.075C1288.84 409.046 1289.05 408.974 1289.24 408.863C1289.43 408.752 1289.6 408.604 1289.73 408.429C1289.87 408.253 1289.97 408.052 1290.02 407.838L1291.97 400.579L1262.78 392.758L1260.84 400.017C1260.78 400.231 1260.76 400.454 1260.79 400.673C1260.82 400.893 1260.89 401.105 1261 401.296C1261.11 401.488 1261.26 401.655 1261.43 401.79C1261.61 401.924 1261.81 402.023 1262.02 402.079V402.079Z" fill="#103F91"/>
<path opacity="0.1" d="M1278.78 376.09L1268.02 373.207L1262.07 395.424L1272.83 398.308C1273.26 398.42 1273.71 398.358 1274.1 398.135C1274.48 397.911 1274.77 397.544 1274.89 397.114L1279.97 378.153C1280.08 377.72 1280.02 377.261 1279.8 376.875C1279.57 376.489 1279.21 376.207 1278.78 376.09V376.09Z" fill="black"/>
<path opacity="0.2" d="M1277.66 376.742L1267.78 374.095L1261.83 396.313L1271.71 398.959C1272.13 399.072 1272.59 399.01 1272.98 398.787C1273.36 398.563 1273.64 398.196 1273.76 397.766L1278.84 378.805C1278.96 378.372 1278.9 377.913 1278.67 377.527C1278.45 377.141 1278.09 376.859 1277.66 376.742V376.742Z" fill="black"/>
<path opacity="0.2" d="M1277.66 376.742L1267.78 374.095L1262.31 394.536L1272.18 397.182C1272.61 397.295 1273.07 397.233 1273.45 397.009C1273.84 396.786 1274.12 396.419 1274.24 395.988L1278.84 378.805C1278.96 378.372 1278.9 377.913 1278.67 377.527C1278.45 377.141 1278.09 376.859 1277.66 376.742V376.742Z" fill="black"/>
<path opacity="0.2" d="M1276.77 376.505L1267.78 374.095L1262.31 394.536L1271.3 396.945C1271.73 397.058 1272.18 396.996 1272.57 396.772C1272.95 396.549 1273.24 396.182 1273.36 395.751L1277.96 378.568C1278.07 378.135 1278.01 377.676 1277.79 377.29C1277.57 376.904 1277.2 376.622 1276.77 376.505V376.505Z" fill="black"/>
<path d="M1260.56 372.16L1276.77 376.505C1277.2 376.62 1277.57 376.901 1277.79 377.288C1278.01 377.675 1278.07 378.135 1277.96 378.568L1273.59 394.863C1273.48 395.295 1273.19 395.663 1272.81 395.887C1272.42 396.111 1271.96 396.172 1271.54 396.056L1255.32 391.711C1255.11 391.655 1254.91 391.556 1254.73 391.422C1254.56 391.288 1254.41 391.12 1254.3 390.928C1254.19 390.737 1254.12 390.525 1254.09 390.306C1254.06 390.086 1254.08 389.863 1254.13 389.648L1258.5 373.354C1258.56 373.14 1258.66 372.939 1258.79 372.763C1258.93 372.587 1259.09 372.44 1259.28 372.329C1259.48 372.218 1259.69 372.146 1259.91 372.117C1260.12 372.088 1260.35 372.103 1260.56 372.16V372.16Z" fill="url(#paint0_linear)"/>
<path d="M1262.25 386.003C1262.21 386.263 1262.17 386.487 1262.13 386.677L1262.17 386.687C1262.23 386.513 1262.32 386.307 1262.43 386.068C1262.54 385.83 1262.64 385.629 1262.72 385.465L1266.41 378.529L1268.61 379.12L1268.43 386.875C1268.41 387.353 1268.36 387.83 1268.28 388.301L1268.31 388.309C1268.46 387.87 1268.64 387.441 1268.85 387.025L1272.23 380.078L1274.23 380.616L1268.92 390.545L1266.57 389.916L1266.77 382.458C1266.77 382.242 1266.79 381.964 1266.81 381.623C1266.84 381.282 1266.86 381.035 1266.89 380.882L1266.86 380.874C1266.8 381.041 1266.69 381.287 1266.54 381.61C1266.39 381.936 1266.28 382.174 1266.2 382.329L1262.75 388.897L1260.37 388.258L1260.71 377.003L1262.75 377.549L1262.3 385.368C1262.29 385.58 1262.27 385.792 1262.25 386.003V386.003Z" fill="white"/>
<circle cx="124" cy="293" r="45" fill="white"/>
<path d="M113.729 288.583C113.461 288.738 113.266 288.992 113.186 289.291C113.105 289.59 113.147 289.909 113.302 290.177C113.457 290.445 113.712 290.64 114.01 290.72C114.309 290.8 114.628 290.758 114.896 290.604L127.02 283.604C127.288 283.449 127.484 283.194 127.564 282.895C127.644 282.596 127.602 282.278 127.447 282.01C127.292 281.742 127.038 281.546 126.739 281.466C126.44 281.386 126.121 281.428 125.853 281.583L113.729 288.583ZM115.635 294.218C115.481 293.95 115.439 293.632 115.519 293.333C115.599 293.034 115.794 292.779 116.062 292.624L128.187 285.624C128.455 285.47 128.773 285.428 129.072 285.508C129.371 285.588 129.626 285.783 129.78 286.051C129.935 286.319 129.977 286.638 129.897 286.937C129.817 287.236 129.621 287.49 129.353 287.645L117.229 294.645C116.961 294.8 116.643 294.842 116.344 294.762C116.045 294.682 115.79 294.486 115.635 294.218ZM118.396 296.666C118.128 296.821 117.932 297.075 117.852 297.374C117.772 297.673 117.814 297.992 117.969 298.26C118.123 298.527 118.378 298.723 118.677 298.803C118.976 298.883 119.294 298.841 119.562 298.687L131.687 291.687C131.955 291.532 132.15 291.277 132.23 290.978C132.31 290.679 132.269 290.361 132.114 290.093C131.959 289.825 131.704 289.629 131.405 289.549C131.107 289.469 130.788 289.511 130.52 289.666L118.396 296.666ZM120.729 300.707C120.461 300.862 120.266 301.117 120.186 301.416C120.105 301.715 120.147 302.033 120.302 302.301C120.457 302.569 120.712 302.764 121.01 302.845C121.309 302.925 121.628 302.883 121.896 302.728L127.958 299.228C128.226 299.073 128.421 298.818 128.502 298.52C128.582 298.221 128.54 297.902 128.385 297.634C128.23 297.366 127.975 297.171 127.677 297.091C127.378 297.011 127.059 297.053 126.791 297.207L120.729 300.707Z" fill="black"/>
<path d="M105.333 288.041C104.714 286.97 104.547 285.696 104.867 284.5C105.187 283.305 105.97 282.286 107.041 281.667L123.207 272.333C124.279 271.714 125.553 271.547 126.748 271.867C127.944 272.187 128.963 272.97 129.582 274.041L143.582 298.29C144.201 299.362 144.369 300.636 144.048 301.831C143.728 303.027 142.946 304.046 141.874 304.665L125.708 313.998C124.636 314.617 123.362 314.785 122.167 314.464C120.971 314.144 119.952 313.362 119.333 312.29L105.333 288.041ZM124.374 274.354L108.208 283.687C107.672 283.997 107.281 284.506 107.121 285.104C106.961 285.702 107.045 286.339 107.354 286.875L121.354 311.123C121.663 311.659 122.173 312.05 122.771 312.211C123.369 312.371 124.006 312.287 124.541 311.978L140.707 302.644C141.243 302.335 141.634 301.825 141.794 301.227C141.955 300.63 141.871 299.993 141.561 299.457L127.561 275.208C127.252 274.672 126.742 274.281 126.145 274.121C125.547 273.961 124.91 274.045 124.374 274.354Z" fill="black"/>
<rect x="123" y="308.806" width="25.6117" height="9.31333" rx="2" transform="rotate(-30 123 308.806)" fill="black"/>
<path d="M130.283 312.54C130.178 312.6 130.068 312.619 129.953 312.595C129.838 312.571 129.745 312.499 129.675 312.377C129.615 312.274 129.6 312.164 129.63 312.047C129.66 311.931 129.728 311.842 129.835 311.781C129.941 311.719 130.053 311.704 130.171 311.735C130.289 311.764 130.378 311.831 130.439 311.936C130.508 312.056 130.525 312.173 130.488 312.286C130.453 312.397 130.385 312.481 130.283 312.54ZM132.091 307.281L131.269 307.755L132.829 310.458C132.919 310.613 132.951 310.749 132.926 310.865C132.9 310.98 132.831 311.069 132.721 311.132C132.61 311.197 132.497 311.211 132.382 311.176C132.268 311.14 132.167 311.045 132.078 310.891L130.518 308.189L129.696 308.664C129.568 308.738 129.456 308.765 129.361 308.745C129.265 308.724 129.191 308.667 129.137 308.574C129.081 308.477 129.069 308.383 129.101 308.29C129.135 308.196 129.214 308.113 129.337 308.042L131.732 306.659C131.863 306.584 131.976 306.557 132.071 306.579C132.169 306.599 132.245 306.656 132.298 306.749C132.352 306.842 132.363 306.936 132.332 307.03C132.3 307.123 132.22 307.207 132.091 307.281ZM134.158 309.254L134.288 307.559L132.964 306.882C132.837 306.815 132.736 306.754 132.659 306.699C132.583 306.642 132.525 306.578 132.485 306.509C132.444 306.438 132.438 306.357 132.469 306.265C132.5 306.17 132.561 306.096 132.652 306.044C132.757 305.983 132.856 305.967 132.95 305.997C133.044 306.024 133.192 306.091 133.391 306.199L134.471 306.78L134.546 305.532C134.551 305.428 134.555 305.339 134.557 305.265C134.562 305.19 134.57 305.126 134.581 305.072C134.593 305.018 134.613 304.971 134.642 304.932C134.672 304.89 134.713 304.854 134.766 304.823C134.86 304.769 134.954 304.753 135.046 304.776C135.14 304.797 135.209 304.846 135.254 304.924C135.319 305.037 135.343 305.229 135.325 305.499L135.224 307.018L136.715 307.778C136.848 307.843 136.95 307.902 137.024 307.955C137.096 308.006 137.15 308.062 137.186 308.125C137.22 308.184 137.237 308.246 137.237 308.312C137.236 308.378 137.218 308.44 137.182 308.499C137.146 308.558 137.096 308.607 137.03 308.645C136.959 308.686 136.89 308.705 136.823 308.703C136.757 308.703 136.697 308.689 136.641 308.663C136.585 308.637 136.479 308.584 136.323 308.505L135.074 307.853L134.991 309.315C134.985 309.43 134.981 309.512 134.977 309.56C134.974 309.606 134.966 309.655 134.952 309.705C134.939 309.756 134.915 309.803 134.882 309.847C134.849 309.891 134.803 309.93 134.744 309.965C134.652 310.017 134.56 310.033 134.467 310.013C134.375 309.991 134.299 309.927 134.237 309.82C134.165 309.695 134.139 309.507 134.158 309.254ZM138.48 303.592L137.658 304.067L139.218 306.769C139.308 306.925 139.34 307.061 139.315 307.177C139.288 307.291 139.22 307.38 139.11 307.444C138.998 307.508 138.885 307.523 138.77 307.488C138.657 307.452 138.556 307.357 138.467 307.203L136.907 304.501L136.085 304.975C135.956 305.049 135.845 305.077 135.75 305.057C135.654 305.036 135.579 304.978 135.526 304.885C135.47 304.789 135.458 304.694 135.49 304.601C135.524 304.507 135.602 304.425 135.726 304.354L138.121 302.971C138.251 302.896 138.364 302.869 138.46 302.89C138.558 302.91 138.633 302.967 138.687 303.06C138.741 303.153 138.752 303.247 138.721 303.342C138.689 303.435 138.608 303.518 138.48 303.592Z" fill="white"/>
<defs>
<linearGradient id="paint0_linear" x1="1262.67" y1="371.353" x2="1269.57" y2="396.824" gradientUnits="userSpaceOnUse">
<stop stop-color="#2368C4"/>
<stop offset="0.5" stop-color="#1A5DBE"/>
<stop offset="1" stop-color="#1146AC"/>
</linearGradient>
</defs>
</svg>
