<svg width="1440" height="1228" viewBox="0 0 1440 1228" fill="none" xmlns="http://www.w3.org/2000/svg">
<rect width="1440" height="1228" fill="white"/>
<path d="M0 0H1440V638.378L0 960V0Z" fill="#F6ECDF"/>
<circle cx="1207" cy="96" r="32" fill="#41A5EE" fill-opacity="0.2"/>
<circle cx="201" cy="122" r="32" fill="#C25450" fill-opacity="0.2"/>
<circle cx="358" cy="433" r="20" fill="#E9D0AF"/>
<circle cx="1280.48" cy="385.485" r="60" transform="rotate(15 1280.48 385.485)" fill="white"/>
<path d="M1297.49 373.483L1271.55 366.531C1271.33 366.474 1271.11 366.46 1270.89 366.489C1270.67 366.518 1270.46 366.59 1270.27 366.701C1270.08 366.812 1269.91 366.959 1269.78 367.135C1269.64 367.311 1269.55 367.511 1269.49 367.725L1267.54 374.984L1281.39 383.456L1296.73 382.805L1298.68 375.546C1298.73 375.332 1298.75 375.109 1298.72 374.889C1298.69 374.669 1298.62 374.458 1298.51 374.266C1298.4 374.075 1298.25 373.907 1298.08 373.773C1297.9 373.638 1297.7 373.54 1297.49 373.483V373.483Z" fill="#41A5EE"/>
<path d="M1296.73 382.805L1267.54 374.984L1265.16 383.871L1279.48 390.566L1294.35 391.692L1296.73 382.805Z" fill="#2B7CD3"/>
<path d="M1265.16 383.871L1262.78 392.758L1276.46 398.327L1291.97 400.579L1294.35 391.692L1265.16 383.871Z" fill="#185ABD"/>
<path d="M1262.02 402.079L1287.96 409.031C1288.18 409.089 1288.4 409.103 1288.62 409.075C1288.84 409.046 1289.05 408.974 1289.24 408.863C1289.43 408.752 1289.6 408.604 1289.73 408.429C1289.87 408.253 1289.97 408.052 1290.02 407.838L1291.97 400.579L1262.78 392.758L1260.84 400.017C1260.78 400.231 1260.76 400.454 1260.79 400.673C1260.82 400.893 1260.89 401.105 1261 401.296C1261.11 401.488 1261.26 401.655 1261.43 401.79C1261.61 401.924 1261.81 402.023 1262.02 402.079V402.079Z" fill="#103F91"/>
<path opacity="0.1" d="M1278.78 376.09L1268.02 373.207L1262.07 395.424L1272.83 398.308C1273.26 398.42 1273.71 398.358 1274.1 398.135C1274.48 397.911 1274.77 397.544 1274.89 397.114L1279.97 378.153C1280.08 377.72 1280.02 377.261 1279.8 376.875C1279.57 376.489 1279.21 376.207 1278.78 376.09V376.09Z" fill="black"/>
<path opacity="0.2" d="M1277.66 376.742L1267.78 374.095L1261.83 396.313L1271.7 398.959C1272.13 399.072 1272.59 399.01 1272.98 398.787C1273.36 398.563 1273.64 398.196 1273.76 397.766L1278.84 378.805C1278.96 378.372 1278.89 377.913 1278.67 377.527C1278.45 377.141 1278.09 376.859 1277.66 376.742V376.742Z" fill="black"/>
<path opacity="0.2" d="M1277.66 376.742L1267.78 374.095L1262.3 394.536L1272.18 397.182C1272.61 397.295 1273.07 397.233 1273.45 397.009C1273.84 396.786 1274.12 396.419 1274.24 395.988L1278.84 378.805C1278.96 378.372 1278.89 377.913 1278.67 377.527C1278.45 377.141 1278.09 376.859 1277.66 376.742V376.742Z" fill="black"/>
<path opacity="0.2" d="M1276.77 376.505L1267.78 374.095L1262.3 394.536L1271.3 396.945C1271.73 397.058 1272.18 396.996 1272.57 396.772C1272.95 396.549 1273.24 396.182 1273.36 395.751L1277.96 378.568C1278.07 378.135 1278.01 377.676 1277.79 377.29C1277.57 376.904 1277.2 376.622 1276.77 376.505V376.505Z" fill="black"/>
<path d="M1260.56 372.16L1276.77 376.505C1277.2 376.62 1277.57 376.901 1277.79 377.288C1278.01 377.675 1278.07 378.135 1277.96 378.568L1273.59 394.863C1273.48 395.295 1273.19 395.663 1272.81 395.887C1272.42 396.111 1271.96 396.172 1271.54 396.056L1255.32 391.711C1255.11 391.655 1254.91 391.556 1254.73 391.422C1254.56 391.288 1254.41 391.12 1254.3 390.928C1254.19 390.737 1254.12 390.525 1254.09 390.306C1254.06 390.086 1254.08 389.863 1254.13 389.648L1258.5 373.354C1258.56 373.14 1258.66 372.939 1258.79 372.763C1258.93 372.587 1259.09 372.44 1259.28 372.329C1259.48 372.218 1259.69 372.146 1259.91 372.117C1260.12 372.088 1260.35 372.103 1260.56 372.16V372.16Z" fill="url(#paint0_linear)"/>
<path d="M1262.24 386.003C1262.21 386.263 1262.17 386.487 1262.13 386.677L1262.17 386.687C1262.23 386.513 1262.32 386.307 1262.43 386.068C1262.54 385.83 1262.64 385.629 1262.72 385.465L1266.41 378.529L1268.61 379.12L1268.43 386.875C1268.41 387.353 1268.36 387.83 1268.28 388.301L1268.31 388.309C1268.46 387.87 1268.64 387.441 1268.85 387.025L1272.23 380.078L1274.23 380.616L1268.92 390.545L1266.57 389.916L1266.77 382.458C1266.77 382.242 1266.79 381.964 1266.81 381.623C1266.84 381.282 1266.86 381.035 1266.89 380.882L1266.86 380.874C1266.8 381.041 1266.69 381.287 1266.54 381.61C1266.39 381.936 1266.28 382.174 1266.2 382.329L1262.75 388.897L1260.36 388.258L1260.71 377.003L1262.75 377.549L1262.3 385.368C1262.29 385.58 1262.27 385.792 1262.24 386.003V386.003Z" fill="white"/>
<circle cx="124" cy="293" r="45" fill="white"/>
<path d="M125.926 274.273L134.225 279.335L141.151 305.183L116.952 311.667L116.974 311.751L141.256 305.245L134.331 279.398L125.926 274.273Z" fill="#909090"/>
<path d="M125.822 274.211L108.098 278.96L116.868 311.689L141.151 305.183L134.225 279.336L125.821 274.211" fill="#F4F4F4"/>
<path d="M108.391 280.766L100.951 282.759L103.095 290.76L126.497 284.489L124.354 276.488L108.391 280.766Z" fill="#7A7B7C"/>
<path d="M126.586 284.32L103.21 290.583L101.065 282.576L124.44 276.313L126.586 284.32Z" fill="#DD2025"/>
<path d="M109.179 281.853L107.657 282.261L109.164 287.886L110.361 287.565L109.853 285.668L110.121 285.613C110.377 285.539 110.619 285.425 110.838 285.274C111.03 285.143 111.195 284.975 111.321 284.779C111.451 284.589 111.536 284.371 111.568 284.142C111.593 283.769 111.538 283.395 111.405 283.045C111.329 282.791 111.216 282.548 111.07 282.326C110.95 282.17 110.798 282.041 110.625 281.946C110.452 281.852 110.262 281.795 110.066 281.779C109.897 281.764 109.726 281.766 109.557 281.785C109.429 281.798 109.302 281.821 109.178 281.854L109.179 281.853ZM109.678 284.601L109.574 284.629L109.11 282.894L109.334 282.834C109.432 282.8 109.535 282.789 109.638 282.801C109.74 282.813 109.838 282.848 109.926 282.903C110.116 283.054 110.253 283.264 110.314 283.5C110.391 283.788 110.461 284.049 110.252 284.303C110.093 284.456 109.894 284.559 109.678 284.6" fill="#464648"/>
<path d="M113.227 280.752C113.098 280.787 112.975 280.83 112.887 280.857L112.612 280.938L111.704 281.182L113.211 286.807L114.28 286.52C114.691 286.422 115.079 286.244 115.422 285.995C115.696 285.79 115.915 285.519 116.059 285.207C116.197 284.894 116.265 284.555 116.258 284.213C116.252 283.825 116.197 283.439 116.093 283.065C115.997 282.616 115.844 282.182 115.638 281.772C115.467 281.475 115.229 281.223 114.942 281.037C114.716 280.886 114.461 280.783 114.194 280.736C113.964 280.695 113.731 280.683 113.498 280.698C113.407 280.707 113.316 280.724 113.228 280.749L113.227 280.752ZM114.252 285.42L114.136 285.451L113.173 281.86L113.189 281.856C113.421 281.764 113.676 281.743 113.921 281.795C114.113 281.879 114.284 282.005 114.424 282.162C114.573 282.328 114.685 282.523 114.754 282.734C114.834 282.989 114.88 283.203 114.927 283.378C114.985 283.578 115.026 283.782 115.049 283.989C115.068 284.203 115.055 284.418 115.009 284.628C114.948 284.828 114.842 285.011 114.7 285.163C114.581 285.295 114.423 285.384 114.249 285.417" fill="#464648"/>
<path d="M118.934 279.244L116.105 280.002L117.613 285.628L118.809 285.307L118.212 283.076L119.725 282.67L119.445 281.625L117.931 282.03L117.582 280.727L119.212 280.29L118.932 279.245" fill="#464648"/>
<path d="M128.935 296.306C128.935 296.306 132.465 294.634 132.807 295.91C133.149 297.187 130.71 297.284 128.935 296.306ZM126.217 297.139C125.662 297.428 125.139 297.774 124.655 298.171L124.838 296.992C125.021 295.812 125.119 294.245 125.119 294.245C125.927 295.037 126.811 295.748 127.757 296.367C127.23 296.596 126.716 296.855 126.217 297.141L126.217 297.139ZM122.706 289.915C122.408 288.803 122.684 288.404 122.963 288.329C123.241 288.254 123.59 288.305 123.859 289.268C124.029 290.263 124.083 291.275 124.022 292.282C123.39 291.619 122.937 290.806 122.706 289.919L122.706 289.915ZM120.596 303.689C119.273 303.309 122.234 300.253 122.855 300.014C122.852 300.016 121.98 304.087 120.596 303.689V303.689ZM133.931 295.771C133.888 295.657 133.436 294.388 131.157 295.058C130.197 295.298 129.26 295.622 128.355 296.026C127.192 295.343 126.124 294.508 125.179 293.542C125.268 292.261 125.185 290.974 124.931 289.714C124.521 288.317 123.97 287.6 122.902 287.899C121.834 288.198 121.931 289.183 122.448 290.549C122.839 291.456 123.346 292.307 123.957 293.082C123.957 293.082 123.877 294.765 123.636 296.482C123.395 298.2 123.165 299.128 123.165 299.128C122.127 299.806 121.204 300.647 120.432 301.619C119.713 302.775 119.508 303.57 120.198 304.125C120.793 304.603 122.353 304.33 123.234 302.168C123.709 301.046 124.109 299.894 124.431 298.718C124.431 298.718 126.354 297.588 126.959 297.258C127.563 296.928 128.311 296.594 128.311 296.594C128.311 296.594 130.722 298.007 132.533 297.448C134.344 296.89 133.979 295.882 133.937 295.772" fill="#DD2025"/>
<path d="M125.757 274.325L127.602 281.207L134.16 279.45L125.757 274.325Z" fill="#909090"/>
<path d="M125.823 274.21L127.667 281.093L134.226 279.336L125.823 274.21Z" fill="#F4F4F4"/>
<path d="M109.064 281.787L107.543 282.195L109.05 287.82L110.252 287.498L109.743 285.602L110.013 285.546C110.269 285.473 110.511 285.359 110.73 285.207C110.922 285.077 111.086 284.909 111.212 284.712C111.342 284.523 111.425 284.305 111.456 284.077C111.481 283.704 111.426 283.33 111.293 282.98C111.217 282.725 111.104 282.483 110.958 282.261C110.838 282.105 110.686 281.975 110.513 281.881C110.34 281.787 110.15 281.73 109.954 281.713C109.784 281.698 109.613 281.7 109.443 281.719C109.315 281.732 109.188 281.756 109.063 281.788L109.064 281.787ZM109.564 284.535L109.46 284.563L108.995 282.828L109.221 282.768C109.318 282.734 109.422 282.723 109.524 282.735C109.627 282.747 109.725 282.781 109.812 282.837C110.003 282.988 110.139 283.197 110.201 283.434C110.278 283.722 110.348 283.983 110.139 284.236C109.98 284.389 109.781 284.493 109.564 284.533" fill="white"/>
<path d="M113.114 280.686C112.985 280.72 112.861 280.764 112.774 280.791L112.502 280.871L111.594 281.114L113.101 286.74L114.17 286.453C114.581 286.355 114.969 286.176 115.312 285.928C115.586 285.723 115.805 285.452 115.949 285.14C116.087 284.827 116.155 284.488 116.149 284.146C116.143 283.758 116.087 283.372 115.983 282.998C115.887 282.549 115.734 282.114 115.528 281.705C115.357 281.408 115.119 281.156 114.832 280.97C114.606 280.819 114.351 280.716 114.084 280.668C113.854 280.628 113.621 280.616 113.389 280.631C113.297 280.64 113.206 280.657 113.118 280.682L113.114 280.686ZM114.142 285.353L114.026 285.384L113.064 281.793L113.079 281.789C113.311 281.697 113.566 281.676 113.811 281.728C114.003 281.812 114.174 281.938 114.314 282.095C114.463 282.26 114.575 282.455 114.644 282.667C114.724 282.922 114.77 283.136 114.817 283.311C114.875 283.511 114.916 283.715 114.939 283.922C114.958 284.136 114.945 284.351 114.9 284.561C114.838 284.761 114.733 284.944 114.59 285.096C114.471 285.228 114.313 285.317 114.139 285.35" fill="white"/>
<path d="M118.82 279.178L115.991 279.936L117.498 285.561L118.695 285.241L118.097 283.009L119.611 282.604L119.331 281.558L117.817 281.964L117.468 280.661L119.098 280.224L118.818 279.179" fill="white"/>
<defs>
<linearGradient id="paint0_linear" x1="1262.67" y1="371.353" x2="1269.57" y2="396.824" gradientUnits="userSpaceOnUse">
<stop stop-color="#2368C4"/>
<stop offset="0.5" stop-color="#1A5DBE"/>
<stop offset="1" stop-color="#1146AC"/>
</linearGradient>
</defs>
</svg>
