<svg width="29" height="19" viewBox="0 0 29 19" fill="none" xmlns="http://www.w3.org/2000/svg">
<path d="M2.95845 18L4.71413 13.0568H11.771L13.5266 18H15.7425L9.33345 0.545454H7.15163L0.742543 18H2.95845ZM5.37891 11.1818L8.17436 3.30682H8.31072L11.1062 11.1818H5.37891ZM22.0408 18.3068C24.3249 18.3068 25.5181 17.0795 25.9272 16.2273H26.0295V18H28.0408V9.375C28.0408 5.21591 24.8704 4.73864 23.1999 4.73864C21.2227 4.73864 18.9727 5.42045 17.9499 7.80682L19.859 8.48864C20.3022 7.53409 21.3505 6.51136 23.2681 6.51136C25.1175 6.51136 26.0295 7.49148 26.0295 9.17045V9.23864C26.0295 10.2102 25.0408 10.125 22.6545 10.4318C20.2255 10.7472 17.5749 11.2841 17.5749 14.2841C17.5749 16.8409 19.5522 18.3068 22.0408 18.3068ZM22.3477 16.5C20.7454 16.5 19.5863 15.7841 19.5863 14.3864C19.5863 12.8523 20.984 12.375 22.5522 12.1705C23.4045 12.0682 25.6886 11.8295 26.0295 11.4205V13.2614C26.0295 14.8977 24.734 16.5 22.3477 16.5Z" fill="black"/>
</svg>
