<svg width="24" height="24" viewBox="0 0 24 24" fill="none" xmlns="http://www.w3.org/2000/svg">
<path d="M23.9227 7.08371C23.9093 6.076 23.7203 5.07831 23.3643 4.13527C23.0556 3.33982 22.584 2.61741 21.9798 2.01419C21.3756 1.41097 20.652 0.940216 19.8552 0.631999C18.9227 0.282546 17.9376 0.0935908 16.9418 0.0731789C15.6597 0.0159664 15.2532 0 11.9987 0C8.74411 0 8.32697 8.92186e-08 7.0542 0.0731789C6.05885 0.0937409 5.07421 0.282694 4.14216 0.631999C3.34526 0.940001 2.62153 1.41068 2.01728 2.01393C1.41303 2.61717 0.941567 3.33969 0.633052 4.13527C0.282316 5.06548 0.093456 6.04871 0.0746335 7.04247C0.0173256 8.32376 0 8.72957 0 11.9787C0 15.2279 -9.92969e-09 15.643 0.0746335 16.915C0.0946246 17.9102 0.282541 18.8921 0.633052 19.8248C0.942085 20.6202 1.4139 21.3424 2.01835 21.9454C2.6228 22.5484 3.3466 23.0188 4.14349 23.3268C5.07299 23.6903 6.0578 23.8927 7.05553 23.9255C8.33896 23.9827 8.74545 24 12 24C15.2546 24 15.6717 24 16.9445 23.9255C17.9402 23.9059 18.9254 23.7174 19.8578 23.368C20.6544 23.0594 21.3778 22.5885 21.982 21.9854C22.5862 21.3822 23.0579 20.66 23.3669 19.8647C23.7175 18.9334 23.9054 17.9514 23.9254 16.9549C23.9827 15.6749 24 15.2691 24 12.0186C23.9973 8.76949 23.9973 8.35703 23.9227 7.08371ZM11.9907 18.1231C8.58685 18.1231 5.82941 15.3702 5.82941 11.9721C5.82941 8.5739 8.58685 5.82104 11.9907 5.82104C13.6247 5.82104 15.1919 6.4691 16.3473 7.62264C17.5028 8.77618 18.1519 10.3407 18.1519 11.9721C18.1519 13.6034 17.5028 15.1679 16.3473 16.3215C15.1919 17.475 13.6247 18.1231 11.9907 18.1231ZM18.3972 7.02783C17.6015 7.02783 16.9605 6.38652 16.9605 5.59353C16.9605 5.40526 16.9976 5.21883 17.0698 5.0449C17.1419 4.87096 17.2477 4.71291 17.3811 4.57979C17.5144 4.44666 17.6727 4.34106 17.8469 4.26901C18.0212 4.19697 18.2079 4.15989 18.3965 4.15989C18.5851 4.15989 18.7718 4.19697 18.946 4.26901C19.1203 4.34106 19.2786 4.44666 19.4119 4.57979C19.5453 4.71291 19.651 4.87096 19.7232 5.0449C19.7954 5.21883 19.8325 5.40526 19.8325 5.59353C19.8325 6.38652 19.1901 7.02783 18.3972 7.02783Z" fill="white"/>
<path d="M11.9905 15.9677C14.2009 15.9677 15.9927 14.1788 15.9927 11.9721C15.9927 9.76544 14.2009 7.97656 11.9905 7.97656C9.78014 7.97656 7.98828 9.76544 7.98828 11.9721C7.98828 14.1788 9.78014 15.9677 11.9905 15.9677Z" fill="white"/>
</svg>
