<svg width="24" height="25" viewBox="0 0 24 25" fill="none" xmlns="http://www.w3.org/2000/svg">
<path d="M4.7031 0.019043C2.11677 0.019043 0 2.13576 0 4.72215V19.3167C0 21.903 2.11672 24.019 4.7031 24.019H19.2977C21.884 24.019 24 21.9031 24 19.3167V4.72215C24 2.13581 21.884 0.019043 19.2977 0.019043H4.7031ZM5.886 3.97953C7.1261 3.97953 7.88994 4.79363 7.91352 5.86375C7.91352 6.91025 7.12605 7.74723 5.86202 7.74723H5.83875C4.62226 7.74723 3.83599 6.91029 3.83599 5.86375C3.83599 4.79365 4.64605 3.97953 5.88598 3.97953H5.886ZM16.5726 8.98115C18.9575 8.98115 20.7454 10.54 20.7454 13.8898V20.1433H17.1209V14.309C17.1209 12.843 16.5964 11.8427 15.2847 11.8427C14.2834 11.8427 13.6865 12.5169 13.4245 13.1681C13.3287 13.4011 13.3052 13.7266 13.3052 14.0525V20.1433H9.68074C9.68074 20.1433 9.72831 10.2602 9.68074 9.23691H13.3059V10.7814C13.7876 10.0382 14.6491 8.98113 16.5726 8.98113V8.98115ZM4.04978 9.2377H7.67423V20.1433H4.04978V9.2377Z" fill="white"/>
</svg>
