<svg width="175" height="41" viewBox="0 0 135 45" fill="none" xmlns="http://www.w3.org/2000/svg">
<g filter="url(#filter0_d)">
<path d="M19.9504 30.2148C19.9504 32.1694 19.3607 33.8488 18.1812 35.253C16.9343 36.7245 15.3504 37.4603 13.4295 37.4603C12.7105 37.4603 11.6265 37.4435 10.1774 37.4098C8.73955 37.3761 7.66115 37.3592 6.94222 37.3592C6.41425 37.3592 5.61668 37.3817 4.54951 37.4266C3.49357 37.4716 2.70162 37.494 2.17365 37.494C1.89282 37.494 1.7524 37.3648 1.7524 37.1065C1.7524 35.8708 1.80857 34.0173 1.9209 31.546C2.04447 29.0634 2.10625 27.2043 2.10625 25.9686C2.10625 24.6655 2.04447 22.7109 1.9209 20.1048C1.80857 17.4874 1.7524 15.5272 1.7524 14.2241C1.7524 13.977 1.89282 13.8534 2.17365 13.8534C3.17342 13.8534 4.67869 13.859 6.68946 13.8703C8.70024 13.8815 10.2111 13.8871 11.2221 13.8871C13.5811 13.8871 15.4627 14.3252 16.8669 15.2014C18.5744 16.2686 19.4281 17.9255 19.4281 20.1722C19.4281 20.9473 19.2034 21.7561 18.7541 22.5986C18.3048 23.4299 17.7599 24.0589 17.1196 24.4858C16.7939 24.6992 16.631 24.8396 16.631 24.907C16.631 24.9744 16.7939 25.098 17.1196 25.2777C17.9734 25.7495 18.6586 26.446 19.1753 27.3671C19.6921 28.277 19.9504 29.2263 19.9504 30.2148ZM15.2156 20.5429C15.2156 18.959 14.5079 17.8918 13.0925 17.3414C12.2387 17.0156 10.8402 16.8527 8.89682 16.8527C7.00962 16.8527 6.06601 16.9931 6.06601 17.274C6.06601 17.6447 6.04916 18.2007 6.01546 18.9421C5.98176 19.6835 5.96491 20.2452 5.96491 20.6271C5.96491 20.8855 5.97053 21.2843 5.98176 21.8235C5.993 22.3627 5.99861 22.7671 5.99861 23.0367C5.99861 23.3625 7.26798 23.5253 9.80672 23.5253C13.4126 23.5253 15.2156 22.5312 15.2156 20.5429ZM15.6705 30.0463C15.6705 28.6758 15.0583 27.7491 13.8339 27.266C13.0588 26.9515 11.8512 26.7942 10.2111 26.7942C7.38032 26.7942 5.96491 26.9459 5.96491 27.2492V30.0126C5.96491 30.417 5.97615 31.0348 5.99861 31.8661C6.02108 32.6974 6.03231 33.3208 6.03231 33.7365C6.03231 33.8488 6.39178 33.933 7.11072 33.9892C7.82965 34.0454 8.89682 34.0735 10.3122 34.0735C12.0871 34.0735 13.3621 33.8432 14.1372 33.3826C15.1594 32.776 15.6705 31.6639 15.6705 30.0463ZM30.0706 37.1402C30.0706 37.3761 29.9077 37.494 29.5819 37.494C29.3797 37.494 29.0708 37.4772 28.6552 37.4435C28.2395 37.4098 27.9306 37.3929 27.7284 37.3929C27.515 37.3929 27.2005 37.4098 26.7848 37.4435C26.3692 37.4772 26.0603 37.494 25.8581 37.494C25.5772 37.494 25.4368 37.3648 25.4368 37.1065C25.4368 35.8259 25.493 33.8993 25.6053 31.3269C25.7289 28.7432 25.7907 26.8055 25.7907 25.5136C25.7907 24.2667 25.7289 22.3964 25.6053 19.9026C25.493 17.3975 25.4368 15.5216 25.4368 14.2747C25.4368 13.9938 25.566 13.8534 25.8244 13.8534C26.0378 13.8534 26.3636 13.8703 26.8017 13.904C27.2398 13.9377 27.5712 13.9545 27.7958 13.9545C27.998 13.9545 28.3013 13.9377 28.7057 13.904C29.1101 13.8703 29.4134 13.8534 29.6156 13.8534C29.9077 13.8534 30.0537 13.9657 30.0537 14.1904C30.0537 15.4486 30.0088 17.3358 29.9189 19.852C29.8291 22.3683 29.7841 24.2555 29.7841 25.5136C29.7841 26.8055 29.8291 28.7432 29.9189 31.3269C30.02 33.9106 30.0706 35.8483 30.0706 37.1402ZM51.8846 17.0381C51.8846 17.3301 51.7835 17.4762 51.5813 17.4762C51.2668 17.4762 49.2785 17.4088 45.6164 17.274C45.5153 20.7001 45.4648 23.4467 45.4648 25.5136C45.4648 26.8055 45.5097 28.7432 45.5996 31.3269C45.7007 33.9106 45.7512 35.8483 45.7512 37.1402C45.7512 37.3761 45.5883 37.494 45.2626 37.494C45.0604 37.494 44.7515 37.4772 44.3358 37.4435C43.9202 37.4098 43.6057 37.3929 43.3922 37.3929C43.19 37.3929 42.8811 37.4098 42.4655 37.4435C42.0498 37.4772 41.7409 37.494 41.5387 37.494C41.2579 37.494 41.1175 37.3536 41.1175 37.0728C41.1175 35.7922 41.168 33.8713 41.2691 31.3101C41.3814 28.7376 41.4376 26.8055 41.4376 25.5136C41.4376 23.5141 41.3758 20.7675 41.2523 17.274C38.3541 17.4537 36.231 17.5436 34.8829 17.5436C34.7481 17.5436 34.6807 17.4874 34.6807 17.3751C34.6807 17.1729 34.7313 16.8808 34.8324 16.4989C34.956 16.0046 35.029 15.7125 35.0514 15.6227C35.0739 15.2295 35.1525 14.6847 35.2873 13.9882C35.3435 13.8422 35.439 13.7692 35.5738 13.7692L35.776 13.786C39.7526 14.0219 42.3756 14.1399 43.645 14.1399C44.7683 14.1399 46.605 14.0556 49.1549 13.8871C50.8961 13.7748 51.6207 13.7186 51.3286 13.7186C51.6207 13.7186 51.7835 13.8197 51.8172 14.0219C51.7948 13.8983 51.7835 14.4432 51.7835 15.6564C51.7835 15.8024 51.8004 16.0327 51.8341 16.3472C51.8678 16.6505 51.8846 16.8808 51.8846 17.0381ZM62.4988 35.3378C62.4988 35.5096 62.4831 35.744 62.4519 36.0409C62.4128 36.4081 62.3894 36.6464 62.3816 36.7557C62.3738 36.8964 62.362 36.9823 62.3464 37.0135C62.3152 37.0682 62.2409 37.1229 62.1238 37.1776C61.4831 37.4823 60.4753 37.6346 59.1003 37.6346C57.2722 37.6346 56.3581 36.8065 56.3581 35.1503C56.3581 34.4862 56.3738 33.4901 56.405 32.162C56.4363 30.826 56.4519 29.826 56.4519 29.162C56.4519 28.8417 56.2917 28.6698 55.9714 28.6464C55.6824 28.6464 55.3972 28.6425 55.1159 28.6346C54.9519 28.5956 54.8699 28.2753 54.8699 27.6737C54.8699 27.4471 54.8855 27.2089 54.9167 26.9589C54.9402 26.7714 55.0652 26.6581 55.2917 26.619C55.487 26.619 55.6784 26.6151 55.8659 26.6073C56.2253 26.5917 56.405 26.4315 56.405 26.1268C56.405 25.8143 56.3933 25.3378 56.3699 24.6971C56.3542 24.0565 56.3464 23.576 56.3464 23.2557C56.3464 22.6854 56.4558 22.4003 56.6745 22.4003C56.7449 22.4003 57.4792 22.5214 58.8777 22.7635C59.0574 22.787 59.1472 22.8729 59.1472 23.0214C59.1472 23.3651 59.1199 23.8807 59.0652 24.5682C59.0183 25.2557 58.9949 25.7714 58.9949 26.1151C58.9949 26.3417 59.1003 26.455 59.3113 26.455H62.1238C62.2566 26.455 62.323 26.5018 62.323 26.5956C62.323 26.6893 62.3074 26.8417 62.2761 27.0526C62.2527 27.2557 62.2409 27.4081 62.2409 27.5096C62.2409 27.6268 62.2449 27.8065 62.2527 28.0487C62.2605 28.2909 62.2644 28.4706 62.2644 28.5878C62.2644 28.7362 62.155 28.8104 61.9363 28.8104C61.6238 28.8104 61.1511 28.7909 60.5183 28.7518C59.8855 28.705 59.4128 28.6815 59.1003 28.6815C59.0378 28.6815 58.9909 28.9042 58.9597 29.3495C58.9206 29.9042 58.9011 30.6815 58.9011 31.6815V33.4276C58.9011 34.0995 58.9636 34.5682 59.0886 34.8339C59.2761 35.2401 59.6628 35.4432 60.2488 35.4432C60.4909 35.4432 60.8464 35.3925 61.3152 35.2909C61.7839 35.1815 62.1316 35.1268 62.3581 35.1268C62.4519 35.1268 62.4988 35.1971 62.4988 35.3378ZM76.5917 31.787C76.5917 33.4198 76.0566 34.8143 74.9863 35.9706C73.8925 37.1659 72.537 37.7635 70.9199 37.7635C69.2949 37.7635 67.9355 37.1698 66.8417 35.9823C65.7714 34.8339 65.2363 33.4432 65.2363 31.8104C65.2363 30.1776 65.7714 28.787 66.8417 27.6385C67.9433 26.4667 69.3027 25.8807 70.9199 25.8807C72.5292 25.8807 73.8808 26.4667 74.9745 27.6385C76.0527 28.7792 76.5917 30.162 76.5917 31.787ZM74.1191 31.8104C74.1191 30.8573 73.8261 30.0448 73.2402 29.3729C72.6308 28.662 71.8574 28.3065 70.9199 28.3065C69.9824 28.3065 69.205 28.6581 68.5878 29.3612C68.0019 30.0409 67.7089 30.8573 67.7089 31.8104C67.7089 32.7479 68.0058 33.5604 68.5995 34.2479C69.2245 34.9745 69.998 35.3378 70.9199 35.3378C71.8495 35.3378 72.623 34.9745 73.2402 34.2479C73.8261 33.5604 74.1191 32.7479 74.1191 31.8104Z" fill="#FF9900"/>
<path d="M111.024 37.157C111.024 37.4042 110.912 37.5277 110.687 37.5277C110.316 37.5277 109.76 37.5221 109.019 37.5109C108.289 37.4996 107.738 37.494 107.368 37.494C107.165 37.494 107.064 37.3311 107.064 37.0054C107.064 36.4549 107.081 35.618 107.115 34.4947C107.149 33.3714 107.165 32.5289 107.165 31.9672C107.165 31.5179 107.16 30.8495 107.149 29.9621C107.137 29.0634 107.132 28.3894 107.132 27.94C107.132 26.6594 106.946 25.7552 106.576 25.2272C106.126 24.5981 105.295 24.2836 104.082 24.2836C103.52 24.2836 102.739 24.5981 101.74 25.2272C100.684 25.89 100.156 26.4797 100.156 26.9964V37.1065C100.156 37.3873 100.049 37.5277 99.8356 37.5277C99.4762 37.5277 98.937 37.5221 98.218 37.5109C97.4991 37.4996 96.9599 37.494 96.6004 37.494C96.3645 37.494 96.2466 37.3648 96.2466 37.1065C96.2466 36.219 96.2578 34.8879 96.2803 33.113C96.314 31.3381 96.3308 30.0014 96.3308 29.1027C96.3308 26.71 96.0781 24.5026 95.5726 22.4806C95.5389 22.3795 95.522 22.3065 95.522 22.2616C95.522 22.1493 95.595 22.0706 95.7411 22.0257C95.8197 22.0145 96.46 21.9134 97.662 21.7224C98.8752 21.5202 99.5099 21.4191 99.566 21.4191C99.6334 21.4191 99.6784 21.5089 99.7008 21.6887C99.757 22.3852 99.8862 23.0872 100.088 23.7949C100.673 23.3344 101.442 22.7615 102.397 22.0762C103.576 21.3573 104.717 20.9978 105.817 20.9978C107.929 20.9978 109.373 21.61 110.148 22.8345C110.721 23.7332 111.007 25.1879 111.007 27.1986C111.007 27.5469 110.996 28.0805 110.974 28.7994C110.962 29.5183 110.957 30.0575 110.957 30.417C110.957 31.1696 110.968 32.293 110.99 33.787C111.013 35.281 111.024 36.4044 111.024 37.157ZM133.394 25.9349C133.394 28.8556 132.041 30.8102 129.333 31.7987C129.333 32.3716 129.895 33.4107 131.018 34.916C132.142 36.41 132.703 37.157 132.703 37.157C132.703 37.3255 132.142 37.4379 131.018 37.494C130.277 37.5277 129.721 37.5446 129.35 37.5446C128.553 37.5446 128.053 37.3761 127.851 37.0391C127.323 36.1404 126.491 34.8317 125.357 33.113C125.222 32.9108 124.003 32.8266 121.7 32.8603L121.043 32.8771V37.0391C121.043 37.3873 120.92 37.5614 120.672 37.5614C120.313 37.5614 119.779 37.5558 119.072 37.5446C118.375 37.5333 117.847 37.5277 117.488 37.5277C117.241 37.5277 117.117 37.3087 117.117 36.8706V26.3898C117.117 25.0194 117.061 22.9693 116.949 20.2396C116.847 17.5099 116.797 15.4598 116.797 14.0893C116.797 13.8871 116.904 13.7748 117.117 13.7523C117.488 13.7411 118.049 13.7186 118.802 13.6849C118.959 13.6737 119.291 13.6344 119.796 13.567C120.201 13.5108 120.526 13.4827 120.773 13.4827C120.931 13.4827 121.009 13.6175 121.009 13.8871C121.009 14.4937 120.981 15.398 120.925 16.6C120.869 17.8019 120.841 18.7062 120.841 19.3128V23.6601C120.841 23.896 120.891 24.014 120.993 24.014C121.262 23.7893 121.667 23.4579 122.206 23.0198C124.093 21.5595 125.89 20.8293 127.598 20.8293C129.26 20.8293 130.62 21.2562 131.675 22.1099C132.821 23.0423 133.394 24.3173 133.394 25.9349ZM129.333 26.7268C129.333 25.1205 128.294 24.3173 126.216 24.3173C124.666 24.3173 122.919 25.3508 120.976 27.4177V29.9284C121.886 30.0969 122.986 30.1811 124.278 30.1811C125.581 30.1811 126.693 29.934 127.615 29.4397C128.76 28.8219 129.333 27.9176 129.333 26.7268Z" fill="#995C00"/>
</g>
<g filter="url(#filter1_i)">
<path d="M97.9944 10.4194L99.5415 11.6295C98.6775 15.9447 95.0605 20.6003 89.6401 21.9717C86.0233 22.8874 84.0419 25.7037 83.6944 30.4221L83.1466 30.4899C83.4982 22.0296 81.6575 2.61797 102.304 0.0655504C101.44 4.37662 100.408 7.30842 99.2035 8.86148L97.9944 10.4194Z" fill="#FF9900"/>
</g>
<path d="M83.0305 31.7361C83.0464 31.737 83.062 31.741 83.0763 31.748C83.0907 31.7549 83.1035 31.7646 83.1141 31.7765L83.1141 31.777C83.1724 31.8424 83.349 32.041 83.5069 32.3027C83.663 32.5613 83.8116 32.8987 83.7915 33.2382C83.7723 33.5617 83.6706 33.8022 83.5014 33.958C83.3319 34.1138 83.1117 34.1692 82.8872 34.1559C82.6626 34.1426 82.4503 34.0616 82.3006 33.8869C82.151 33.7121 82.0784 33.4614 82.0976 33.1378C82.1177 32.7983 82.305 32.4809 82.4906 32.2425C82.6265 32.0704 82.7778 31.9112 82.9425 31.7666C82.9544 31.756 82.9686 31.7478 82.9836 31.7426C82.9987 31.7374 83.0146 31.7352 83.0305 31.7361Z" fill="url(#paint0_linear)"/>
<path d="M82.6656 35.7543C82.674 35.7513 82.6829 35.75 82.6918 35.7504C82.7006 35.7509 82.7093 35.753 82.7174 35.7569L82.7174 35.7571C82.7616 35.778 82.8955 35.8417 83.0335 35.9417C83.1699 36.0406 83.3195 36.1816 83.383 36.3604C83.4435 36.5307 83.4435 36.6763 83.3905 36.7931C83.3373 36.91 83.2363 36.9863 83.118 37.0283C82.9998 37.0703 82.8731 37.0748 82.7583 37.0176C82.6434 36.9604 82.5516 36.8474 82.4912 36.677C82.4277 36.4983 82.4549 36.2945 82.4984 36.1317C82.5308 36.0138 82.5739 35.8991 82.6271 35.7891C82.6309 35.781 82.6364 35.7738 82.643 35.7678C82.6496 35.7618 82.6573 35.7572 82.6656 35.7543Z" fill="url(#paint1_linear)"/>
<defs>
<filter id="filter0_d" x="1.75195" y="13.4827" width="132.6" height="24.2808" filterUnits="userSpaceOnUse" color-interpolation-filters="sRGB">
<feFlood flood-opacity="0" result="BackgroundImageFix"/>
<feColorMatrix in="SourceAlpha" type="matrix" values="0 0 0 0 0 0 0 0 0 0 0 0 0 0 0 0 0 0 127 0"/>
<feOffset dx="0.95858"/>
<feColorMatrix type="matrix" values="0 0 0 0 0.376471 0 0 0 0 0.203922 0 0 0 0 0 0 0 0 1 0"/>
<feBlend mode="normal" in2="BackgroundImageFix" result="effect1_dropShadow"/>
<feBlend mode="normal" in="SourceGraphic" in2="effect1_dropShadow" result="shape"/>
</filter>
<filter id="filter1_i" x="83.1465" y="0.0655518" width="19.7963" height="31.0628" filterUnits="userSpaceOnUse" color-interpolation-filters="sRGB">
<feFlood flood-opacity="0" result="BackgroundImageFix"/>
<feBlend mode="normal" in="SourceGraphic" in2="BackgroundImageFix" result="shape"/>
<feColorMatrix in="SourceAlpha" type="matrix" values="0 0 0 0 0 0 0 0 0 0 0 0 0 0 0 0 0 0 127 0" result="hardAlpha"/>
<feOffset dx="3.18622" dy="0.638501"/>
<feGaussianBlur stdDeviation="0.31925"/>
<feComposite in2="hardAlpha" operator="arithmetic" k2="-1" k3="1"/>
<feColorMatrix type="matrix" values="0 0 0 0 0.6 0 0 0 0 0.36 0 0 0 0 0 0 0 0 1 0"/>
<feBlend mode="normal" in2="shape" result="effect1_innerShadow"/>
</filter>
<linearGradient id="paint0_linear" x1="82.7934" y1="33.6265" x2="83.7043" y2="34.7365" gradientUnits="userSpaceOnUse">
<stop stop-color="#995C00"/>
<stop offset="1" stop-color="#FF9900"/>
</linearGradient>
<linearGradient id="paint1_linear" x1="82.9547" y1="36.7768" x2="83.6639" y2="37.1489" gradientUnits="userSpaceOnUse">
<stop stop-color="#995C00"/>
<stop offset="1" stop-color="#FF9900"/>
</linearGradient>
</defs>
</svg>
