<svg width="21" height="20" viewBox="0 0 21 20" fill="none" xmlns="http://www.w3.org/2000/svg">
<path d="M21 6.12095C21.0002 5.3172 20.8504 4.52128 20.5594 3.77866C20.2684 3.03604 19.8418 2.36126 19.3039 1.79286C18.766 1.22446 18.1275 0.773575 17.4246 0.465953C16.7218 0.158332 15.9685 -1.61655e-08 15.2078 0C14.2866 9.98563e-05 13.3788 0.232591 12.5599 0.678132C11.7409 1.12367 11.0345 1.76938 10.4994 2.56155C9.96453 1.76972 9.25849 1.12422 8.43998 0.678693C7.62147 0.233168 6.71413 0.000490585 5.79338 0C4.25688 0 2.78331 0.644884 1.69684 1.79279C0.610372 2.94069 0 4.49758 0 6.12095C0 6.60086 0.0580847 7.06481 0.155667 7.51158C0.960723 12.7918 6.51712 18.3629 10.4994 19.8922C14.4817 18.3629 20.0393 12.7918 20.8432 7.5128C20.9419 7.06481 21 6.59963 21 6.12095Z" fill="#DD2E44"/>
</svg>
