<svg width="22" height="28" viewBox="0 0 22 28" fill="none" xmlns="http://www.w3.org/2000/svg">
<path d="M21.7062 7.02188C21.8937 7.20938 22 7.4625 22 7.72812V27C22 27.5531 21.5531 28 21 28H1C0.446875 28 0 27.5531 0 27V1C0 0.446875 0.446875 0 1 0H14.2719C14.5375 0 14.7938 0.10625 14.9813 0.29375L21.7062 7.02188ZM19.6938 8.1875L13.8125 2.30625V8.1875H19.6938ZM14.7881 17.9144C14.3137 17.8988 13.8094 17.9353 13.2366 18.0069C12.4772 17.5384 11.9659 16.895 11.6028 15.9497L11.6362 15.8128L11.675 15.6509C11.8094 15.0844 11.8816 14.6709 11.9031 14.2541C11.9194 13.9394 11.9019 13.6491 11.8459 13.38C11.7428 12.7991 11.3319 12.4594 10.8141 12.4384C10.3312 12.4187 9.8875 12.6884 9.77406 13.1062C9.58937 13.7819 9.6975 14.6709 10.0891 16.1872C9.59031 17.3762 8.93125 18.7703 8.48906 19.5478C7.89875 19.8522 7.43906 20.1291 7.05281 20.4359C6.54344 20.8412 6.22531 21.2578 6.13781 21.6953C6.09531 21.8981 6.15937 22.1631 6.30531 22.3803C6.47094 22.6266 6.72031 22.7866 7.01937 22.8097C7.77406 22.8681 8.70156 22.09 9.72563 20.3328C9.82844 20.2984 9.93719 20.2622 10.07 20.2172L10.4419 20.0916C10.6772 20.0122 10.8478 19.9553 11.0166 19.9006C11.7478 19.6625 12.3009 19.5122 12.8041 19.4266C13.6784 19.8947 14.6891 20.2016 15.3697 20.2016C15.9316 20.2016 16.3112 19.9103 16.4484 19.4519C16.5687 19.0494 16.4734 18.5825 16.2147 18.3244C15.9472 18.0616 15.4553 17.9359 14.7881 17.9144ZM7.03844 21.9275V21.9163L7.0425 21.9056C7.08822 21.7874 7.14692 21.6746 7.2175 21.5694C7.35125 21.3637 7.53531 21.1475 7.76344 20.9172C7.88594 20.7937 8.01344 20.6734 8.16313 20.5384C8.19656 20.5084 8.41031 20.3181 8.45031 20.2806L8.79937 19.9556L8.54562 20.3597C8.16062 20.9734 7.8125 21.4153 7.51437 21.7034C7.40469 21.8097 7.30812 21.8878 7.23 21.9381C7.20421 21.9554 7.17691 21.9702 7.14844 21.9825C7.13562 21.9878 7.12437 21.9909 7.11312 21.9919C7.10125 21.9934 7.08918 21.9918 7.07812 21.9872C7.06636 21.9823 7.05632 21.974 7.04926 21.9633C7.0422 21.9527 7.03843 21.9403 7.03844 21.9275ZM10.9741 15.1063L10.9034 15.2313L10.8597 15.0944C10.7628 14.7872 10.6916 14.3244 10.6719 13.9069C10.6494 13.4319 10.6872 13.1469 10.8372 13.1469C11.0478 13.1469 11.1444 13.4844 11.1519 13.9922C11.1587 14.4384 11.0884 14.9028 10.9738 15.1063H10.9741ZM10.7925 16.9331L10.8403 16.8066L10.9056 16.9253C11.2709 17.5891 11.745 18.1428 12.2663 18.5287L12.3787 18.6119L12.2416 18.64C11.7312 18.7456 11.2559 18.9044 10.6059 19.1666C10.6738 19.1391 9.93031 19.4434 9.74219 19.5156L9.57812 19.5784L9.66562 19.4259C10.0516 18.7541 10.4081 17.9472 10.7922 16.9331H10.7925ZM15.7181 19.3162C15.4725 19.4131 14.9437 19.3266 14.0128 18.9291L13.7766 18.8284L14.0328 18.8097C14.7609 18.7556 15.2766 18.7956 15.5772 18.9056C15.7053 18.9525 15.7906 19.0116 15.8284 19.0791C15.8483 19.111 15.855 19.1495 15.8471 19.1863C15.8392 19.2231 15.8172 19.2553 15.7859 19.2763C15.7661 19.2938 15.7431 19.3073 15.7181 19.3162Z" fill="#DD2025"/>
</svg>
