<svg width="47" height="50" viewBox="0 0 47 50" fill="none" xmlns="http://www.w3.org/2000/svg">
<path d="M24.1023 1.01465L1.39087 10.7576" stroke="white"/>
<path d="M46.1331 10.8304L23.6245 1" stroke="white"/>
<path d="M1.59375 10.3054V26.8305" stroke="white"/>
<path d="M23.6539 48.8541L1.42041 39.2716" stroke="white"/>
<path d="M46.1474 39.155L23.3201 48.8542" stroke="white"/>
<path d="M23.523 35.9315L1.28955 26.3345" stroke="white"/>
<path d="M45.5541 26.1886L23.2483 36.0191" stroke="white"/>
<path d="M45.8142 25.7075V39.6218" stroke="white"/>
<path d="M23.4797 49V13.8496" stroke="white"/>
<path d="M10.5022 13.6017H36.3857" stroke="white"/>
<path d="M1 39.3008L7.35862 36.2671" stroke="white"/>
<path d="M45.8577 10.3929V16.7959" stroke="white"/>
<path d="M45.8434 19.5523C46.2034 19.5523 46.4952 19.2584 46.4952 18.896C46.4952 18.5335 46.2034 18.2396 45.8434 18.2396C45.4835 18.2396 45.1917 18.5335 45.1917 18.896C45.1917 19.2584 45.4835 19.5523 45.8434 19.5523Z" fill="white"/>
</svg>
