<svg width="26" height="32" viewBox="0 0 26 32" fill="none" xmlns="http://www.w3.org/2000/svg">
<path d="M24.8071 8.025C25.0214 8.23929 25.1429 8.52857 25.1429 8.83214V30.8571C25.1429 31.4893 24.6321 32 24 32H1.14286C0.510714 32 0 31.4893 0 30.8571V1.14286C0 0.510714 0.510714 0 1.14286 0H16.3107C16.6143 0 16.9071 0.121429 17.1214 0.335714L24.8071 8.025ZM22.5071 9.35714L15.7857 2.63571V9.35714H22.5071ZM12.5714 17.9321L14.4575 24.9679C14.4819 25.0591 14.5357 25.1397 14.6106 25.1972C14.6856 25.2546 14.7774 25.2858 14.8718 25.2857H16.0064C16.1008 25.2858 16.1925 25.2548 16.2674 25.1975C16.3423 25.1401 16.3962 25.0597 16.4207 24.9686L19.0768 15.1114C19.0864 15.0751 19.0912 15.0376 19.0911 15C19.0911 14.8863 19.0459 14.7773 18.9655 14.697C18.8852 14.6166 18.7762 14.5714 18.6625 14.5714H17.3921C17.2951 14.5714 17.201 14.6042 17.1251 14.6646C17.0492 14.725 16.996 14.8094 16.9743 14.9039L15.3393 22.0146L13.5621 14.8961C13.539 14.8034 13.4855 14.721 13.4101 14.6622C13.3348 14.6034 13.242 14.5714 13.1464 14.5714H11.9964C11.9008 14.5715 11.808 14.6035 11.7326 14.6624C11.6573 14.7213 11.6038 14.8036 11.5807 14.8964L9.80714 22.0004L8.16071 14.9036C8.13886 14.8093 8.08574 14.7252 8.00999 14.6649C7.93425 14.6047 7.84035 14.5719 7.74357 14.5718H6.47964C6.44214 14.5718 6.40479 14.5767 6.36857 14.5864C6.25886 14.616 6.16536 14.6879 6.10864 14.7863C6.05191 14.8848 6.0366 15.0017 6.06607 15.1114L8.715 24.9686C8.73949 25.0595 8.79328 25.1399 8.86804 25.1972C8.9428 25.2546 9.03436 25.2857 9.12857 25.2857H10.2711C10.3654 25.2857 10.4572 25.2545 10.532 25.1971C10.6068 25.1396 10.6606 25.059 10.685 24.9679L12.5714 17.9321Z" fill="#0029FF"/>
</svg>
